<svg width="16" height="17" viewBox="0 0 16 17" fill="none" xmlns="http://www.w3.org/2000/svg">
<path d="M13.7307 5.15275C13.7116 5.10752 13.6796 5.06891 13.6387 5.04174C13.5978 5.01458 13.5498 5.00006 13.5007 5H2.50048C2.45126 4.99991 2.40312 5.01434 2.36207 5.04149C2.32103 5.06864 2.28891 5.10731 2.26974 5.15263C2.25057 5.19796 2.24521 5.24794 2.25432 5.2963C2.26344 5.34466 2.28662 5.38926 2.32098 5.4245L7.82098 11.0813C7.84427 11.1052 7.87214 11.1243 7.90293 11.1373C7.93372 11.1503 7.9668 11.157 8.00023 11.157C8.03365 11.157 8.06673 11.1503 8.09752 11.1373C8.12831 11.1243 8.15618 11.1052 8.17948 11.0813L13.6795 5.42425C13.7137 5.38901 13.7368 5.34447 13.7459 5.29618C13.755 5.2479 13.7496 5.19801 13.7305 5.15275H13.7307Z" fill="#333333"/>
</svg>
