<svg width="24" height="24" viewBox="0 0 24 24" fill="none" xmlns="http://www.w3.org/2000/svg">
<path fill-rule="evenodd" clip-rule="evenodd" d="M19.2003 11.3964C19.3409 11.5371 19.4199 11.7278 19.4199 11.9267C19.4199 12.1256 19.3409 12.3163 19.2003 12.4569L13.8978 17.7594C13.7565 17.8961 13.5671 17.9719 13.3704 17.9703C13.1738 17.9687 12.9856 17.89 12.8465 17.751C12.7073 17.6121 12.6283 17.424 12.6264 17.2274C12.6246 17.0307 12.7001 16.8412 12.8366 16.6997L16.8596 12.6767H5.17908C4.98017 12.6767 4.78941 12.5977 4.64875 12.457C4.5081 12.3164 4.42908 12.1256 4.42908 11.9267C4.42908 11.7278 4.5081 11.537 4.64875 11.3963C4.78941 11.2557 4.98017 11.1767 5.17908 11.1767H16.8596L12.8366 7.15368C12.6959 7.01305 12.6168 6.82227 12.6167 6.62332C12.6166 6.42437 12.6956 6.23353 12.8362 6.0928C12.9768 5.95207 13.1676 5.87297 13.3666 5.8729C13.5655 5.87283 13.7564 5.9518 13.8971 6.09243L19.2003 11.3964Z" fill="#333333"/>
</svg>
