<svg width="32" height="32" viewBox="0 0 32 32" fill="none" xmlns="http://www.w3.org/2000/svg">
<path d="M7 24H5C2.8 24 1 22.2 1 20V17C1 14.8 2.8 13 5 13H7C8.1 13 9 13.9 9 15V22C9 23.1 8.1 24 7 24ZM5 15C3.9 15 3 15.9 3 17V20C3 21.1 3.9 22 5 22H7V15H5ZM27 24H25C23.9 24 23 23.1 23 22V15C23 13.9 23.9 13 25 13H27C29.2 13 31 14.8 31 17V20C31 22.2 29.2 24 27 24ZM25 15V22H27C28.1 22 29 21.1 29 20V17C29 15.9 28.1 15 27 15H25Z" fill="black"/>
<path d="M27 15C26.4 15 26 14.6 26 14V12C26 6.5 21.5 2 16 2C10.5 2 6 6.5 6 12V14C6 14.6 5.6 15 5 15C4.4 15 4 14.6 4 14V12C4 5.4 9.4 0 16 0C22.6 0 28 5.4 28 12V14C28 14.6 27.6 15 27 15ZM11 30H8C5.8 30 4 28.2 4 26V23C4 22.4 4.4 22 5 22C5.6 22 6 22.4 6 23V26C6 27.1 6.9 28 8 28H11C11.6 28 12 28.4 12 29C12 29.6 11.6 30 11 30Z" fill="black"/>
<path d="M13 32C11.3 32 10 30.7 10 29C10 27.3 11.3 26 13 26C14.7 26 16 27.3 16 29C16 30.7 14.7 32 13 32ZM13 28C12.4 28 12 28.4 12 29C12 29.6 12.4 30 13 30C13.6 30 14 29.6 14 29C14 28.4 13.6 28 13 28Z" fill="black"/>
</svg>
