<svg width="30" height="30" viewBox="0 0 30 30" fill="none" xmlns="http://www.w3.org/2000/svg">
<path d="M8.89213 22.1964L7.57819 21.7309C8.18425 22.9527 8.91153 23.937 9.71153 24.6594C7.75535 24.1014 5.97227 23.0572 4.52849 21.6242C4.91152 21.4206 5.3188 21.2364 5.75031 21.0618C5.38183 20.9115 5.01819 20.7273 4.6788 20.5188C4.40243 20.6497 4.13577 20.7806 3.88365 20.9261C3.17577 20.1018 2.56971 19.1855 2.10425 18.1964L1.1588 16.9988C0.673949 16.3782 0.543039 15.5636 0.804858 14.817C0.858191 14.6715 0.921221 14.5358 1.00365 14.4049C0.964858 14.0994 0.945464 13.7891 0.930918 13.4788H2.05577C2.18183 13.4206 2.31274 13.377 2.45334 13.343L4.14062 12.9552C4.79031 12.8049 5.45456 12.7321 6.12365 12.7321C7.13213 12.7321 8.12607 12.9018 9.08122 13.2412L9.74547 13.4788H12.5624V14.4776L13.4885 14.8073V13.4788H15.3503L16.6449 12.5527H13.4885V7.19031C15.2049 7.15637 16.8776 6.93819 18.4194 6.55031C18.8364 7.78667 19.137 9.17819 19.2873 10.6715L19.6461 10.4145C19.8012 10.2982 19.9806 10.2109 20.16 10.1527C19.9952 8.77091 19.7043 7.47637 19.3115 6.30788C20.3636 5.98788 21.3188 5.58061 22.177 5.11031C23.9224 7.12243 25.0133 9.72122 25.12 12.5624H24.1503C24.1455 12.8921 24.0533 13.2073 23.8836 13.4885H25.1249C25.0715 14.8267 24.8 16.1455 24.3249 17.3867L25.5612 16.6158C25.8958 15.4521 26.0655 14.24 26.0655 13.023C26.0655 9.63394 24.7661 6.55031 22.6376 4.22788C22.6376 4.22303 22.6376 4.21819 22.6327 4.21819C22.5503 4.12607 22.463 4.03879 22.3758 3.95152C22.3224 3.90303 22.2788 3.84485 22.2255 3.79637C22.1188 3.69455 22.0121 3.59273 21.9055 3.49576C21.857 3.44728 21.8036 3.39879 21.7503 3.35031C21.6485 3.25819 21.5418 3.17091 21.44 3.08364C21.377 3.03031 21.3139 2.97697 21.2509 2.92849C21.1577 2.84988 21.0623 2.77389 20.9649 2.70061C20.8824 2.63758 20.8049 2.57455 20.7176 2.51637C20.6303 2.45819 20.5527 2.39516 20.4655 2.33697C20.3588 2.2691 20.2521 2.19152 20.1455 2.12364C20.0824 2.08 20.0146 2.04122 19.9515 1.99758C19.8158 1.91516 19.6849 1.83273 19.5443 1.75031C19.5006 1.72607 19.4618 1.70182 19.4133 1.67758C19.2485 1.58546 19.0788 1.49334 18.9091 1.40607C18.8897 1.39637 18.8752 1.39152 18.8606 1.38182C17.0494 0.47159 15.0501 -0.00166059 13.023 4.37803e-06C10.9285 4.37803e-06 8.94546 0.499398 7.19031 1.38182C7.17092 1.39152 7.15152 1.40122 7.13698 1.40607C6.97213 1.49334 6.79759 1.58546 6.63274 1.67758C6.5891 1.70182 6.55031 1.72607 6.50183 1.75031C6.36607 1.82788 6.23516 1.91031 6.0994 1.99758C6.03637 2.04122 5.96365 2.08 5.90062 2.12364C5.80365 2.17697 5.70183 2.2497 5.59516 2.32243L5.34304 2.50182C5.26546 2.56 5.18789 2.62303 5.10546 2.68122C5.00365 2.75394 4.90668 2.83152 4.80971 2.91394L4.63031 3.06425C4.52365 3.15637 4.41213 3.24849 4.30546 3.34546C4.26183 3.3891 4.21819 3.42788 4.16971 3.47152L3.83516 3.79152C3.79152 3.83516 3.75759 3.87394 3.71395 3.91758C3.61698 4.01455 3.52001 4.11152 3.42789 4.21334C3.42789 4.21334 3.42789 4.21819 3.42304 4.22303C1.21822 6.61905 -0.00382578 9.75725 8.99782e-06 13.0133C8.99782e-06 16.4121 1.2994 19.5006 3.43274 21.823L3.46183 21.8521C5.65334 24.2279 8.71759 25.7842 12.1455 26.017L11.84 24.9067C10.754 24.5042 9.73577 23.5636 8.89213 22.1964ZM19.1661 2.5794C19.1855 2.59394 19.2097 2.60364 19.2291 2.61819C19.3503 2.69091 19.4715 2.77334 19.5879 2.84606C19.6364 2.88 19.6897 2.9091 19.743 2.94303C19.8352 3.00122 19.9224 3.0691 20.0097 3.13213C20.0824 3.18061 20.1649 3.23879 20.2376 3.29213C20.3006 3.34061 20.3636 3.38425 20.4218 3.43273C20.5188 3.50546 20.6158 3.58303 20.7127 3.66546C20.7515 3.6994 20.7855 3.72849 20.8291 3.76243C20.9406 3.85455 21.0521 3.95152 21.1588 4.04849C21.1927 4.07758 21.217 4.10182 21.2461 4.12606C21.343 4.21819 21.4449 4.31516 21.5418 4.41213C20.7758 4.8097 19.9224 5.1491 19.0061 5.42546C18.3273 3.72364 17.4255 2.32728 16.3685 1.38182C17.3479 1.66303 18.2836 2.06546 19.1661 2.5794ZM13.4933 0.945459C15.3503 1.20243 17.0085 2.99637 18.0994 5.67758C16.6594 6.03637 15.0982 6.24 13.4933 6.2691V0.945459ZM12.5673 12.5527H6.64728C6.69577 10.3515 7.04971 8.29576 7.63153 6.54546C9.17334 6.93334 10.8509 7.15637 12.5721 7.19031V12.5527H12.5673ZM12.5673 0.945459V6.2691C10.9576 6.23031 9.39153 6.02667 7.95152 5.67273C9.03759 2.99637 10.6909 1.20243 12.5673 0.945459ZM4.85819 4.09213L4.90183 4.04849C5.02304 3.94182 5.14425 3.83516 5.26546 3.73334L5.34789 3.66546C5.44971 3.57819 5.55637 3.49576 5.66789 3.40849C5.72122 3.3697 5.76971 3.33091 5.82304 3.29213C5.90546 3.2291 5.98789 3.17091 6.07516 3.11273C6.15274 3.05455 6.23031 2.99637 6.31759 2.94303C6.37577 2.90425 6.43395 2.87031 6.48728 2.83152C6.60365 2.75879 6.72001 2.68607 6.83637 2.61819L6.9188 2.56485C7.80607 2.04607 8.76607 1.63879 9.76001 1.36243C8.69334 2.31758 7.77698 3.71879 7.08365 5.43031C6.15759 5.15394 5.29456 4.8097 4.52365 4.40728C4.63031 4.30061 4.74183 4.19394 4.85819 4.09213ZM3.8788 5.10546C4.74183 5.58061 5.70668 5.98788 6.76365 6.30788C6.14304 8.14546 5.76971 10.2788 5.72122 12.5576H0.935767C1.04243 9.71152 2.13334 7.11758 3.8788 5.10546Z" fill="black"/>
<path d="M24.9835 22.7006L28.9156 18.8606C29.2065 18.5794 29.0999 18.0897 28.7168 17.9539L27.2429 17.4303C27.0829 17.3721 26.9083 17.3915 26.7677 17.4836L23.4223 19.583C23.2817 19.6703 23.1071 19.6897 22.9471 19.6363L17.8077 17.8133L22.6126 12.8824C22.889 12.5963 22.7823 12.1163 22.4041 11.9854L20.9593 11.4715C20.7896 11.4133 20.6053 11.4375 20.4599 11.5442L13.7108 16.3587L8.61986 14.5503C7.28168 14.0751 5.83683 13.9927 4.45501 14.3127L2.76774 14.7006C2.12289 14.8509 1.84653 15.6218 2.2538 16.1454L3.32047 17.5078C4.19301 18.6268 5.36722 19.4729 6.70471 19.9466L12.4744 21.9927L14.3556 28.8145C14.3993 28.9648 14.5108 29.086 14.6562 29.1394L16.2368 29.7018C16.5665 29.8181 16.9059 29.5563 16.872 29.2072L16.3435 23.3697L24.8865 26.4C25.4393 26.5988 26.0502 26.3078 26.249 25.7503C26.4477 25.1975 26.1568 24.5866 25.5993 24.3878L25.3374 24.2957C25.0977 24.2099 24.9015 24.0328 24.7917 23.8031C24.6818 23.5734 24.6671 23.3096 24.7508 23.0691C24.7993 22.9284 24.8817 22.8072 24.9835 22.7006Z" fill="black"/>
</svg>
