<svg width="32" height="32" viewBox="0 0 32 32" fill="none" xmlns="http://www.w3.org/2000/svg">
<path d="M20 27H19V22H19.5C19.6326 22 19.7598 21.9473 19.8536 21.8536C19.9473 21.7598 20 21.6326 20 21.5C20 21.3674 19.9473 21.2402 19.8536 21.1465C19.7598 21.0527 19.6326 21 19.5 21H4.3895C3.88865 20.9987 3.40856 20.7998 3.0535 20.4465C2.70016 20.0915 2.50124 19.6114 2.5 19.1105V6.88951C2.50053 6.38855 2.69977 5.90825 3.05401 5.55402C3.40824 5.19978 3.88854 5.00054 4.3895 5.00001H25.11C25.615 5.00001 26.0895 5.19651 26.4465 5.55351C26.7998 5.90857 26.9986 6.38866 27 6.88951V11C27 11.1326 27.0527 11.2598 27.1464 11.3536C27.2402 11.4473 27.3674 11.5 27.5 11.5C27.6326 11.5 27.7598 11.4473 27.8536 11.3536C27.9473 11.2598 28 11.1326 28 11V6.88951C27.9978 6.12362 27.6937 5.3895 27.1535 4.84651C26.8858 4.57721 26.5674 4.36372 26.2166 4.21841C25.8658 4.07311 25.4897 3.99887 25.11 4.00001H4.3895C3.6234 4.00081 2.88891 4.30549 2.34719 4.84721C1.80548 5.38892 1.50079 6.12341 1.5 6.88951V19.1105C1.5 19.8715 1.8085 20.6165 2.3465 21.1535C2.88951 21.6936 3.62362 21.9978 4.3895 22H10.5V27H9.5C9.36739 27 9.24021 27.0527 9.14645 27.1465C9.05268 27.2402 9 27.3674 9 27.5C9 27.6326 9.05268 27.7598 9.14645 27.8536C9.24021 27.9473 9.36739 28 9.5 28H20C20.1326 28 20.2598 27.9473 20.3536 27.8536C20.4473 27.7598 20.5 27.6326 20.5 27.5C20.5 27.3674 20.4473 27.2402 20.3536 27.1465C20.2598 27.0527 20.1326 27 20 27ZM11.5 22H18V27H11.5V22Z" fill="black"/>
<path d="M28.4225 12.5H23.0775C22.5267 12.5007 21.9987 12.7198 21.6092 13.1092C21.2198 13.4987 21.0007 14.0267 21 14.5775V25.9225C21.0005 26.4732 21.2195 27.0013 21.6089 27.3908C21.9983 27.7802 22.5263 27.9993 23.077 28H28.422C28.9729 27.9995 29.501 27.7804 29.8906 27.391C30.2802 27.0015 30.4993 26.4734 30.5 25.9225V14.5775C30.4993 14.0267 30.2802 13.4987 29.8908 13.1092C29.5013 12.7198 28.9733 12.5007 28.4225 12.5ZM29.5 25.9225C29.4996 26.2081 29.386 26.482 29.184 26.684C28.982 26.886 28.7081 26.9996 28.4225 27H23.0775C22.7919 26.9996 22.518 26.886 22.316 26.684C22.114 26.482 22.0004 26.2081 22 25.9225V14.5775C22 13.9835 22.4835 13.5 23.077 13.5H28.422C29.0165 13.5 29.5 13.9835 29.5 14.5775V25.9225Z" fill="black"/>
<path d="M26.5 24.5001H25C24.8674 24.5001 24.7402 24.5527 24.6464 24.6465C24.5527 24.7403 24.5 24.8675 24.5 25.0001C24.5 25.1327 24.5527 25.2598 24.6464 25.3536C24.7402 25.4474 24.8674 25.5001 25 25.5001H26.5C26.6326 25.5001 26.7598 25.4474 26.8536 25.3536C26.9473 25.2598 27 25.1327 27 25.0001C27 24.8675 26.9473 24.7403 26.8536 24.6465C26.7598 24.5527 26.6326 24.5001 26.5 24.5001ZM14 18.2266C13.8674 18.2266 13.7402 18.2792 13.6464 18.373C13.5527 18.4668 13.5 18.594 13.5 18.7266C13.5 18.8592 13.5527 18.9863 13.6464 19.0801C13.7402 19.1739 13.8674 19.2266 14 19.2266H15.5C15.6326 19.2266 15.7598 19.1739 15.8536 19.0801C15.9473 18.9863 16 18.8592 16 18.7266C16 18.594 15.9473 18.4668 15.8536 18.373C15.7598 18.2792 15.6326 18.2266 15.5 18.2266H14Z" fill="black"/>
</svg>
