<svg width="32" height="32" viewBox="0 0 32 32" fill="none" xmlns="http://www.w3.org/2000/svg">
<path d="M16 7.125C11.1063 7.125 7.125 11.1063 7.125 16C7.125 20.8937 11.1063 24.875 16 24.875C20.8937 24.875 24.875 20.8937 24.875 16C24.875 11.1063 20.8937 7.125 16 7.125ZM16 23.625C11.7956 23.625 8.375 20.2044 8.375 16C8.375 11.7956 11.7956 8.375 16 8.375C20.2044 8.375 23.625 11.7956 23.625 16C23.625 20.2044 20.2044 23.625 16 23.625ZM31.6682 0.072996C31.568 0.0198054 31.4552 -0.00512482 31.3419 0.00087546C31.2286 0.00687574 31.1191 0.0435805 31.0251 0.107058C27.9568 2.18025 26.125 5.62875 26.125 9.33181V17.4413C26.125 18.3111 26.4638 19.1289 27.0788 19.7439L28.25 20.9152V30.125C28.25 31.1589 29.0911 32 30.125 32C31.1589 32 32 31.1589 32 30.125V0.624996C32 0.393808 31.8724 0.181496 31.6682 0.072996ZM30.75 30.125C30.75 30.4696 30.4696 30.75 30.125 30.75C29.7804 30.75 29.5 30.4696 29.5 30.125V20.6562C29.5 20.4905 29.4341 20.3316 29.3169 20.2143L27.9626 18.86C27.5837 18.4811 27.375 17.9772 27.375 17.4413V9.33181C27.375 6.45806 28.6176 3.75718 30.75 1.89356V30.125Z" fill="black"/>
<path d="M14.5661 11.0433C14.4306 10.7259 14.0633 10.5784 13.7459 10.7139C12.7095 11.1552 11.8258 11.8917 11.205 12.8317C10.5842 13.7717 10.2537 14.8735 10.2547 16C10.2547 16.3451 10.5345 16.625 10.8797 16.625C11.2249 16.625 11.5047 16.3451 11.5047 16C11.5039 15.1185 11.7626 14.2563 12.2484 13.5208C12.7342 12.7852 13.4257 12.2089 14.2367 11.8636C14.5541 11.7281 14.7016 11.3608 14.5661 11.0433ZM16 10.2547L15.9684 10.2548C15.6233 10.2571 15.3453 10.5388 15.3476 10.8839C15.3499 11.2277 15.6293 11.5048 15.9726 11.5048H15.9768L16 11.5047C16.3452 11.5047 16.625 11.2249 16.625 10.8797C16.625 10.5345 16.3452 10.2547 16 10.2547ZM24.6639 7.77994C23.5597 6.61644 22.2581 5.70094 20.7952 5.05894C19.2805 4.39419 17.6671 4.05713 16 4.05713C14.095 4.05713 12.274 4.4925 10.5876 5.35125C10.2801 5.50787 10.1576 5.88419 10.3142 6.19181C10.4709 6.49931 10.8472 6.62169 11.1549 6.46513C12.6639 5.69675 14.294 5.30713 16 5.30713C18.9622 5.30713 21.7172 6.49087 23.7572 8.64044C23.8156 8.70206 23.8859 8.75113 23.9639 8.78461C24.0418 8.8181 24.1258 8.83531 24.2107 8.83519C24.3708 8.83538 24.5248 8.7739 24.6408 8.6635C24.8912 8.42587 24.9015 8.03031 24.6639 7.77994ZM25.2707 22.5237C24.9999 22.3097 24.6069 22.3556 24.3928 22.6264C22.3495 25.2108 19.2904 26.6929 16 26.6929C13.9406 26.6929 11.9414 26.1064 10.2186 24.9967C9.92844 24.8098 9.54156 24.8936 9.35469 25.1838C9.16781 25.474 9.25156 25.8608 9.54175 26.0476C11.4669 27.2875 13.7001 27.9428 16 27.9428C19.675 27.9428 23.0914 26.2876 25.3733 23.4016C25.5874 23.1309 25.5415 22.7378 25.2707 22.5237ZM8.49737 23.6203L8.48819 23.6097C8.48488 23.6056 8.48156 23.6015 8.47812 23.5975C8.25581 23.3334 7.86156 23.2996 7.5975 23.5219C7.33344 23.7443 7.29956 24.1384 7.52194 24.4026L7.528 24.4097L7.52831 24.4095C7.53494 24.4179 7.54181 24.4263 7.54894 24.4345C7.60758 24.503 7.68037 24.5579 7.76228 24.5955C7.8442 24.6331 7.9333 24.6525 8.02344 24.6524C8.17273 24.6525 8.31711 24.599 8.43025 24.5016C8.69213 24.2768 8.72219 23.8822 8.49737 23.6203ZM7.75 0C7.40481 0 7.125 0.279813 7.125 0.625V7.375H5.9995C5.99956 7.3715 6 7.36812 6 7.36456V0.625C6 0.279813 5.72019 0 5.375 0C5.02981 0 4.75 0.279813 4.75 0.625V7.36456C4.75 7.36806 4.7505 7.3715 4.7505 7.375H3.6245C3.62456 7.3715 3.625 7.36812 3.625 7.36456V0.625C3.625 0.279813 3.34519 0 3 0C2.65481 0 2.375 0.279813 2.375 0.625V7.36456C2.375 7.36806 2.3755 7.3715 2.3755 7.375H1.25V0.625C1.25 0.279813 0.970187 0 0.625 0C0.279813 0 0 0.279813 0 0.625V8.25C0 9.78312 0.93025 11.1668 2.3125 11.7649V30.125C2.3125 31.1589 3.15363 32 4.1875 32C5.22137 32 6.0625 31.1589 6.0625 30.125V11.7649C7.44475 11.1668 8.375 9.78312 8.375 8.25V0.625C8.375 0.279813 8.09519 0 7.75 0ZM5.264 10.7262C5.13383 10.7639 5.0194 10.8428 4.93797 10.9511C4.85653 11.0594 4.8125 11.1912 4.8125 11.3267V30.125C4.8125 30.4696 4.53212 30.75 4.1875 30.75C3.84288 30.75 3.5625 30.4696 3.5625 30.125V11.3267C3.5625 11.1912 3.51847 11.0594 3.43703 10.9511C3.3556 10.8428 3.24117 10.7639 3.111 10.7262C2.13706 10.4448 1.42469 9.60881 1.27825 8.625H7.09669C6.95031 9.60881 6.23794 10.4448 5.264 10.7262Z" fill="black"/>
</svg>
