<svg width="32" height="32" viewBox="0 0 32 32" fill="none" xmlns="http://www.w3.org/2000/svg">
<path d="M31.4664 18.6668H29.8306L28.7998 3.69729C28.7905 3.56224 28.7303 3.43575 28.6312 3.34346C28.5322 3.25116 28.4018 3.19995 28.2664 3.20019H25.0664C24.931 3.19995 24.8006 3.25115 24.7016 3.34344C24.6026 3.43573 24.5423 3.5622 24.533 3.69724L23.5021 18.6667H22.4V15.4667C22.4 15.1724 22.1611 14.9334 21.8668 14.9334C21.7455 14.9332 21.6278 14.9745 21.5332 15.0504L17.0666 18.6236V15.4668C17.0666 15.1724 16.8279 14.9334 16.5334 14.9334C16.4122 14.9332 16.2945 14.9745 16.2 15.0504L11.7334 18.6236V15.4668C11.7334 15.1724 11.4948 14.9334 11.2002 14.9334C11.079 14.9332 10.9613 14.9745 10.8668 15.0504L6.4002 18.6236V15.4668C6.40014 15.3724 6.37503 15.2797 6.32744 15.1982C6.27984 15.1166 6.21147 15.0492 6.1293 15.0027C6.04712 14.9563 5.95409 14.9324 5.85969 14.9337C5.7653 14.9349 5.67293 14.9612 5.592 15.0098L0.2586 18.2098C0.179744 18.2572 0.11449 18.3242 0.0691763 18.4042C0.023863 18.4843 3.23405e-05 18.5747 0 18.6667L0 31.4667C0 31.7613 0.23885 32 0.5334 32H31.4664C31.7609 32 31.9998 31.7613 31.9998 31.4668V19.2002C31.9998 18.9054 31.761 18.6668 31.4664 18.6668ZM25.5645 4.26679H27.7684L28.7617 18.6668H24.5711L25.5645 4.26679ZM18.133 30.9334V24.5334H21.333V30.9334H18.133ZM30.9332 30.9334H22.4V24C22.4 23.7056 22.1609 23.4668 21.8664 23.4668H17.5998C17.3053 23.4668 17.0664 23.7056 17.0664 24V30.9334H1.0666V18.9687L5.3332 16.4087V19.7334C5.3332 20.0281 5.57185 20.2668 5.8664 20.2672C5.9875 20.2672 6.10525 20.2258 6.2 20.15L10.6666 16.5767V19.7334C10.6666 20.0281 10.9051 20.2668 11.1998 20.2672C11.3209 20.2672 11.4385 20.2258 11.5332 20.1502L15.9998 16.5769V19.7336C15.9998 20.0281 16.2383 20.2672 16.533 20.2672C16.6541 20.2672 16.7717 20.2258 16.8664 20.1502L21.333 16.5769V19.2002C21.333 19.4949 21.5718 19.7336 21.8664 19.7336H30.9328V30.9334H30.9332ZM18.1295 1.06699C18.3234 1.17093 18.4986 1.30646 18.648 1.46799C18.9469 1.83244 19.3728 2.07024 19.8398 2.13359C20.3318 2.07096 20.7812 1.82297 21.0965 1.44024C21.2314 1.29864 21.3825 1.17337 21.5467 1.06699C21.6565 1.07189 21.944 1.34099 22.0986 1.48549C22.3863 1.84144 22.7995 2.07343 23.2531 2.13359C23.7768 2.06723 24.2556 1.80453 24.593 1.39859C24.7236 1.27599 24.9215 1.08984 24.9598 1.06699C25.2461 1.06699 25.3118 1.16189 25.4879 1.41579C25.6015 1.6305 25.771 1.81053 25.9785 1.93687C26.186 2.06322 26.4237 2.13118 26.6666 2.13359C26.9609 2.13359 27.1998 1.89474 27.1998 1.60039C27.1998 1.30564 26.9609 1.06699 26.6666 1.06699C26.5597 1.06699 26.5391 1.05954 26.3658 0.809393C26.2268 0.559716 26.0226 0.352521 25.7749 0.209976C25.5273 0.0674314 25.2455 -0.00509957 24.9598 0.000143301C24.5283 0.0599976 24.1359 0.282029 23.8623 0.621043C23.6852 0.788043 23.3883 1.06694 23.2756 1.06949C23.1104 0.969347 22.9593 0.847624 22.8264 0.707543C22.5057 0.317026 22.0478 0.0639521 21.5465 0.000193301C21.0843 0.0632978 20.6631 0.298765 20.3672 0.659393C20.2175 0.819909 20.0448 0.957278 19.8547 1.06699C19.6769 0.965148 19.5152 0.837529 19.3748 0.688293C19.063 0.309837 18.6192 0.0638922 18.133 0.000193301C17.8386 -0.000806699 17.5989 0.237093 17.5979 0.531843C17.5968 0.826143 17.8349 1.06599 18.1295 1.06699Z" fill="black"/>
<path d="M5.86602 24.5334H3.73242C3.43792 24.5334 3.19922 24.7723 3.19922 25.0666V28.2666C3.19922 28.5614 3.43787 28.8 3.73242 28.8H5.86602C6.16037 28.8 6.39922 28.5614 6.39922 28.2666V25.0666C6.39922 24.7723 6.16037 24.5334 5.86602 24.5334ZM5.33242 27.7334H4.26582V25.6002H5.33242V27.7334ZM10.1326 24.5334H7.99922C7.70447 24.5334 7.46582 24.7723 7.46582 25.0666V28.2666C7.46579 28.3367 7.47957 28.4061 7.50637 28.4708C7.53316 28.5355 7.57245 28.5943 7.62199 28.6439C7.67153 28.6934 7.73034 28.7327 7.79506 28.7595C7.85979 28.7863 7.92916 28.8001 7.99922 28.8H10.1326C10.427 28.8 10.6658 28.5614 10.6658 28.2666V25.0666C10.6658 24.7723 10.427 24.5334 10.1326 24.5334ZM9.59902 27.7334H8.53242V25.6002H9.59902V27.7334ZM14.3992 24.5334H12.2658C11.9711 24.5334 11.7324 24.7723 11.7324 25.0666V28.2666C11.7324 28.3367 11.7462 28.4061 11.773 28.4708C11.7998 28.5355 11.8391 28.5943 11.8886 28.6439C11.9381 28.6934 11.9969 28.7327 12.0617 28.7595C12.1264 28.7863 12.1958 28.8001 12.2658 28.8H14.3992C14.6936 28.8 14.9324 28.5614 14.9324 28.2666V25.0666C14.9324 24.7723 14.6936 24.5334 14.3992 24.5334ZM13.8656 27.7334H12.799V25.6002H13.8656V27.7334Z" fill="black"/>
</svg>
