<svg width="36" height="46" viewBox="0 0 36 46" fill="none" xmlns="http://www.w3.org/2000/svg">
<path d="M17.6006 0.5C24.8257 0.500233 30.7656 6.44041 30.7656 13.665V18.918H31.3398C33.0576 18.9181 34.4154 20.2465 34.5537 22.0029V41.9609C34.5535 43.6894 33.1441 45.0993 31.415 45.0996H3.63867C1.91004 45.0996 0.500164 43.6897 0.5 41.9609V22.0566C0.500172 20.3274 1.91009 18.918 3.63867 18.918H4.43555V13.665C4.43559 6.43973 10.3754 0.5 17.6006 0.5ZM18.293 25.4336C16.5702 25.0891 14.7907 26.0336 14.0293 27.6406C13.2533 29.2786 13.7786 31.2442 15.3027 32.3447L15.3096 32.3506L15.3174 32.3555C15.3477 32.3757 15.3579 32.3913 15.3662 32.4111C15.3783 32.44 15.3925 32.4976 15.3926 32.6074V36.9902C15.3926 38.6056 17.0352 39.7724 18.6514 38.917L18.6592 38.9131L18.666 38.9092C19.3627 38.5105 19.7344 37.7367 19.7344 36.9902V32.6084C19.7344 32.4479 19.7525 32.4111 19.7559 32.4043C19.7595 32.397 19.7787 32.3605 19.9053 32.2656C20.9242 31.5013 21.4314 30.3975 21.5156 29.3047L21.5166 29.2852V29.2656C21.5164 27.3077 20.1478 25.7747 18.292 25.4336H18.293ZM17.5996 5.44141C13.0134 5.44144 9.377 9.1585 9.37695 13.665V18.918H25.3203L25.8242 18.9209V13.665C25.8242 9.07826 22.1062 5.44141 17.5996 5.44141Z" stroke="#333333"/>
</svg>
