<svg width="32" height="32" viewBox="0 0 32 32" fill="none" xmlns="http://www.w3.org/2000/svg">
<path d="M16.0498 1.30029C20.7746 1.30029 24.6602 5.18616 24.6602 9.91064V13.5786H25.21C26.2593 13.5788 27.0971 14.388 27.1855 15.4761V28.7739C27.1855 29.8343 26.3205 30.6995 25.2598 30.6997H6.74219C5.68178 30.6997 4.81641 29.8345 4.81641 28.7739V15.5054L4.82617 15.3081C4.92527 14.339 5.7482 13.5786 6.74219 13.5786H7.44043V9.91064C7.44043 5.1858 11.3251 1.30032 16.0498 1.30029ZM16.5352 17.5913C15.3105 17.351 14.0558 18.022 13.5186 19.1558C12.9676 20.3187 13.3395 21.7082 14.4082 22.4888C14.4095 22.5002 14.4111 22.5164 14.4111 22.5386V25.4604C14.4111 26.655 15.6337 27.5248 16.8291 26.8921L16.8428 26.8843C17.3665 26.5847 17.6396 26.009 17.6396 25.4604V22.5396C17.6396 22.5124 17.6406 22.4928 17.6416 22.48C17.6512 22.4716 17.6656 22.4595 17.6865 22.4438C18.4084 21.9024 18.7668 21.1201 18.8262 20.3491L18.8271 20.3306V20.311C18.8271 18.9196 17.8513 17.8307 16.5361 17.5913H16.5352ZM16.0498 4.26123C12.8992 4.26123 10.4004 6.81525 10.4004 9.91064V13.5786H21.1953L21.6992 13.5825V9.91064C21.6992 6.75976 19.1451 4.26138 16.0498 4.26123Z" stroke="#333333"/>
</svg>
