<svg width="32" height="32" viewBox="0 0 32 32" fill="none" xmlns="http://www.w3.org/2000/svg">
<path d="M9.75 23.125C9.405 23.125 9.125 23.405 9.125 23.75C9.125 24.095 9.405 24.375 9.75 24.375C10.095 24.375 10.375 24.095 10.375 23.75C10.375 23.405 10.095 23.125 9.75 23.125Z" fill="black"/>
<path d="M28.134 11.8749L31.8171 8.19188C31.8932 8.1157 31.9484 8.02114 31.9773 7.91736C32.0061 7.81358 32.0077 7.7041 31.9818 7.59955C31.9558 7.495 31.9033 7.39892 31.8293 7.32063C31.7553 7.24235 31.6624 7.18452 31.5595 7.15275L22.5907 4.38462C21.7822 1.78581 19.3792 0 16.625 0C14.0648 0 11.775 1.56031 10.8273 3.91406L0.43895 7.15331C0.336258 7.18533 0.243568 7.24332 0.169848 7.32165C0.0961291 7.39999 0.043876 7.49603 0.0181447 7.60047C-0.00758668 7.70492 -0.00592519 7.81424 0.0229684 7.91786C0.0518619 8.02147 0.107009 8.11588 0.183075 8.19194L3.96301 11.9719L1.57901 15.9453C1.53087 16.0256 1.50136 16.1156 1.49267 16.2088C1.48398 16.302 1.49633 16.3959 1.5288 16.4837C1.56128 16.5715 1.61304 16.6509 1.68029 16.716C1.74754 16.781 1.82854 16.8302 1.91733 16.8598L5.37501 18.0123V27.6249C5.37502 27.7522 5.41385 27.8764 5.48632 27.9809C5.55879 28.0855 5.66145 28.1655 5.78058 28.2101C7.89476 29.0029 15.7501 31.949 15.7923 31.9639C15.9213 32.0097 16.0619 32.0117 16.1921 31.9695C16.194 31.9689 16.1958 31.9685 16.1976 31.9679L27.4476 28.2179C27.5721 28.1764 27.6803 28.0968 27.757 27.9904C27.8337 27.884 27.875 27.7561 27.875 27.6249V17.7549L31.5624 16.5962C31.6649 16.564 31.7574 16.5059 31.8309 16.4275C31.9044 16.3492 31.9565 16.2532 31.9821 16.1488C32.0077 16.0444 32.0059 15.9352 31.977 15.8318C31.9481 15.7283 31.893 15.634 31.817 15.558L28.134 11.8749ZM22.875 6.25C22.875 6.09119 22.8683 5.93275 22.8564 5.77481L30.1998 8.04138L27.0812 11.1599L21.9857 9.46156C22.5627 8.49712 22.875 7.38425 22.875 6.25ZM11.8955 4.62325C12.5893 2.60562 14.49 1.25 16.625 1.25C18.9251 1.25 20.92 2.80575 21.4761 5.03325C21.5752 5.43124 21.6252 5.83986 21.625 6.25C21.625 7.41087 21.2398 8.49894 20.5108 9.397C19.556 10.5746 18.1396 11.25 16.625 11.25C14.9878 11.25 13.4521 10.4464 12.5167 9.09975C11.9334 8.26188 11.625 7.27637 11.625 6.25C11.625 5.69181 11.716 5.1445 11.8955 4.62325ZM1.79783 8.03894L10.4416 5.34369C10.3976 5.64378 10.3754 5.94665 10.375 6.24994C10.375 7.25625 10.6134 8.23094 11.0678 9.11038L4.91883 11.1599L1.79783 8.03894ZM3.05176 15.9203L5.02801 12.6264L15.0632 15.9715L13.087 19.2654L3.05176 15.9203ZM15.375 30.4731L6.62501 27.1919V18.429C13.5094 20.7116 13.1732 20.6419 13.3649 20.6419C13.5798 20.6419 13.7855 20.5307 13.901 20.3384L15.375 17.8815V30.4731ZM16 14.9662L6.72651 11.8751L11.7761 10.1919C12.958 11.6449 14.7372 12.5 16.625 12.5C18.3714 12.5 20.0127 11.7813 21.1933 10.5151L25.2735 11.875L16 14.9662ZM26.625 27.1745L16.625 30.5078V17.4066L18.8407 20.1759C18.9194 20.2743 19.026 20.3466 19.1466 20.3833C19.2671 20.4201 19.3959 20.4195 19.5161 20.3817L26.625 18.1478V27.1745ZM19.5495 19.0611L17.048 15.9344L27.0812 12.5901L30.204 15.7128L19.5495 19.0611Z" fill="black"/>
<path d="M13.7197 24.5122L12.3297 23.9909C12.0065 23.8698 11.6463 24.0335 11.525 24.3567C11.4039 24.6799 11.5676 25.0402 11.8908 25.1614L13.2808 25.6826C13.6047 25.804 13.9645 25.6395 14.0855 25.3169C14.2067 24.9937 14.0429 24.6334 13.7197 24.5122ZM13.7197 27.1822L9.96967 25.7759C9.64648 25.6548 9.28623 25.8185 9.16498 26.1417C9.04373 26.4649 9.20755 26.8252 9.53073 26.9464L13.2807 28.3526C13.3509 28.379 13.4252 28.3926 13.5001 28.3926C13.7532 28.3926 13.9913 28.2378 14.0854 27.9869C14.2067 27.6636 14.0429 27.3034 13.7197 27.1822ZM20.1922 3.93295C19.9482 3.68882 19.5524 3.68889 19.3083 3.93295L16.0002 7.24107L15.1922 6.43301C14.9481 6.18895 14.5524 6.18895 14.3082 6.43301C14.0641 6.67707 14.0642 7.07282 14.3082 7.31695L15.5583 8.56689C15.8024 8.81095 16.1981 8.81095 16.4422 8.56689L20.1922 4.81689C20.4363 4.57282 20.4363 4.17707 20.1922 3.93295Z" fill="black"/>
</svg>
