<svg width="31" height="30" viewBox="0 0 31 30" fill="none" xmlns="http://www.w3.org/2000/svg">
<path d="M22.0008 29.332H8.72082C8.45082 29.332 8.19882 29.226 8.00882 29.036C7.81882 28.844 7.71682 28.59 7.72082 28.322C7.73482 27.044 7.82682 24.662 8.27482 23.064C8.41282 22.572 8.58082 22.168 8.80282 21.796C8.99082 21.48 9.53482 20.69 10.5048 20.142C11.4028 19.636 12.2628 19.562 12.8268 19.588C12.9208 19.592 13.0108 19.624 13.0868 19.68L15.3008 21.294L17.6408 19.674C17.7148 19.622 17.8028 19.594 17.8928 19.59C18.4568 19.564 19.3168 19.64 20.2148 20.144C21.1868 20.692 21.7288 21.482 21.9168 21.798C22.1388 22.17 22.3068 22.574 22.4448 23.066C22.8928 24.664 22.9848 27.048 22.9988 28.324C23.0008 28.594 22.8988 28.848 22.7108 29.038C22.5228 29.226 22.2708 29.332 22.0008 29.332ZM15.3428 28.372H22.0008C22.0048 28.372 22.0168 28.372 22.0288 28.36C22.0408 28.348 22.0408 28.336 22.0408 28.332C22.0268 27.102 21.9408 24.814 21.5228 23.322C21.4068 22.908 21.2748 22.588 21.0948 22.286C20.9468 22.038 20.5168 21.412 19.7448 20.978C19.1208 20.626 18.5208 20.542 18.0888 20.542H18.0728L15.5708 22.276C15.4028 22.392 15.1788 22.39 15.0148 22.27L12.6468 20.544C12.2128 20.544 11.6088 20.626 10.9808 20.98C10.2108 21.414 9.78082 22.04 9.63082 22.29C9.45082 22.592 9.31882 22.91 9.20282 23.324C8.78482 24.818 8.69882 27.104 8.68482 28.334C8.68482 28.338 8.68482 28.35 8.69682 28.362C8.70882 28.374 8.72082 28.374 8.72482 28.374L15.3428 28.372Z" fill="#212121"/>
<path d="M11.2163 29.332C10.9503 29.332 10.7363 29.118 10.7363 28.852V24.83C10.7363 24.564 10.9503 24.35 11.2163 24.35C11.4823 24.35 11.6963 24.564 11.6963 24.83V28.852C11.6963 29.116 11.4823 29.332 11.2163 29.332ZM19.5043 29.332C19.2383 29.332 19.0243 29.118 19.0243 28.852V24.83C19.0243 24.564 19.2383 24.35 19.5043 24.35C19.7703 24.35 19.9843 24.564 19.9843 24.83V28.852C19.9843 29.116 19.7703 29.332 19.5043 29.332ZM15.3803 19.762C14.3623 19.762 13.4083 19.326 12.6943 18.536C11.9923 17.758 11.6043 16.728 11.6043 15.634V14.092C11.6043 13.888 11.7343 13.706 11.9283 13.638C12.1103 13.574 12.6463 13.338 12.9383 13.016C13.1083 12.826 13.3923 12.8 13.5903 12.96C13.6163 12.978 14.0063 13.264 14.6763 13.408C15.6023 13.606 16.6023 13.458 17.6483 12.964C17.8363 12.876 18.0583 12.918 18.2023 13.068C18.2063 13.072 18.5863 13.472 18.9303 13.684C19.0723 13.772 19.1583 13.926 19.1583 14.092V15.634C19.1583 16.728 18.7723 17.758 18.0683 18.536C17.3523 19.328 16.3983 19.762 15.3803 19.762ZM12.5643 14.414V15.634C12.5643 17.382 13.8283 18.802 15.3803 18.802C16.9323 18.802 18.1963 17.38 18.1963 15.634V14.344C18.0283 14.22 17.8703 14.082 17.7483 13.968C16.3143 14.564 15.1523 14.5 14.4123 14.332C13.9483 14.226 13.5903 14.068 13.3503 13.938C13.0783 14.156 12.7843 14.312 12.5643 14.414Z" fill="#212121"/>
<path d="M12.0858 14.572C11.8998 14.572 11.7238 14.464 11.6458 14.282C11.4638 13.858 11.4358 13.41 11.4098 13.016C11.3898 12.694 11.3638 12.292 11.4578 11.896C11.5398 11.55 11.7438 11.182 12.0778 10.772C12.1298 10.708 12.1858 10.646 12.2398 10.586C13.1378 9.626 14.6118 9.248 14.8978 9.182C15.4598 9.054 15.9958 9.008 16.4958 9.046C16.8458 9.072 17.1438 9.122 17.4058 9.196C17.7738 9.3 18.0618 9.498 18.2398 9.774C18.3278 9.91 18.3818 10.048 18.4278 10.17C18.4658 10.27 18.5018 10.364 18.5438 10.414C18.6078 10.488 18.6938 10.556 18.7938 10.636C18.9078 10.726 19.0378 10.828 19.1558 10.962C19.4398 11.282 19.7618 11.82 19.8098 12.364C19.8558 12.872 19.6578 13.31 19.4798 13.636C19.4758 13.644 19.4638 13.666 19.4478 13.696C19.1438 14.282 19.0798 14.37 18.9978 14.446C18.8018 14.626 18.4998 14.612 18.3198 14.416C18.1538 14.234 18.1518 13.958 18.3098 13.778C18.3398 13.732 18.4138 13.602 18.5958 13.254C18.6178 13.214 18.6318 13.184 18.6378 13.174C18.7498 12.968 18.8758 12.7 18.8538 12.45C18.8318 12.2 18.6598 11.85 18.4378 11.598C18.3758 11.528 18.2898 11.46 18.1978 11.388C18.0758 11.292 17.9358 11.182 17.8098 11.032C17.6638 10.86 17.5898 10.668 17.5298 10.514C17.4958 10.428 17.4658 10.348 17.4318 10.294C17.3698 10.198 17.2418 10.146 17.1438 10.12C16.9438 10.064 16.7058 10.026 16.4178 10.004C16.0158 9.974 15.5758 10.012 15.1098 10.118C14.4498 10.27 13.4858 10.654 12.9378 11.242C12.8958 11.286 12.8558 11.332 12.8158 11.38C12.5198 11.74 12.4198 11.98 12.3878 12.118C12.3278 12.374 12.3458 12.682 12.3638 12.956C12.3838 13.288 12.4058 13.632 12.5218 13.902C12.6278 14.146 12.5158 14.428 12.2718 14.534C12.2138 14.56 12.1498 14.572 12.0858 14.572ZM18.3538 13.738C18.3518 13.738 18.3518 13.738 18.3538 13.738V13.738ZM13.3998 20.976C13.3318 20.976 13.2618 20.962 13.1958 20.93C12.9558 20.818 12.8518 20.532 12.9658 20.292C13.0578 20.098 13.2118 19.71 13.2218 19.288C13.2258 19.126 13.2058 19.054 13.1698 18.926C13.1618 18.896 13.1538 18.864 13.1438 18.832C13.0758 18.576 13.2298 18.314 13.4878 18.246C13.7438 18.18 14.0058 18.332 14.0738 18.59C14.0818 18.618 14.0878 18.644 14.0958 18.67C14.1398 18.83 14.1898 19.01 14.1818 19.314C14.1658 19.91 13.9578 20.438 13.8358 20.7C13.7518 20.874 13.5798 20.976 13.3998 20.976ZM17.2898 20.978C17.1158 20.978 16.9478 20.882 16.8618 20.718C16.6118 20.23 16.4738 19.722 16.4598 19.244C16.4538 18.996 16.4858 18.832 16.5178 18.706C16.5818 18.448 16.8438 18.294 17.0998 18.358C17.3578 18.422 17.5118 18.684 17.4478 18.94C17.4298 19.008 17.4158 19.08 17.4198 19.218C17.4298 19.64 17.5858 20.026 17.7158 20.278C17.8378 20.514 17.7438 20.804 17.5078 20.924C17.4378 20.962 17.3638 20.978 17.2898 20.978Z" fill="#212121"/>
<path d="M26.1171 16.346H21.4291C21.1631 16.346 20.9491 16.132 20.9491 15.866C20.9491 15.6 21.1631 15.386 21.4291 15.386H25.6371V11.178C25.6371 10.912 25.8511 10.698 26.1171 10.698C26.3831 10.698 26.5971 10.912 26.5971 11.178V15.866C26.5971 16.13 26.3831 16.346 26.1171 16.346ZM9.28909 16.346H4.60109C4.33509 16.346 4.12109 16.132 4.12109 15.866V11.178C4.12109 10.912 4.33509 10.698 4.60109 10.698C4.86709 10.698 5.08109 10.912 5.08109 11.178V15.386H9.28909C9.55509 15.386 9.76909 15.6 9.76909 15.866C9.76909 16.132 9.55309 16.346 9.28909 16.346Z" fill="#212121"/>
<path d="M23.0977 7.88796C23.0437 7.88796 22.9897 7.87796 22.9357 7.85996C22.6857 7.76996 22.5557 7.49596 22.6457 7.24596C23.1497 5.83196 24.4977 4.88196 25.9977 4.88196H26.2377C27.7397 4.88196 29.0857 5.83196 29.5897 7.24596C29.6797 7.49596 29.5477 7.76996 29.2997 7.85996C29.0497 7.94996 28.7757 7.81796 28.6857 7.56996C28.3177 6.53796 27.3337 5.84396 26.2377 5.84396H25.9977C24.9017 5.84396 23.9177 6.53796 23.5497 7.56996C23.4797 7.76596 23.2937 7.88796 23.0977 7.88796Z" fill="#212121"/>
<path d="M26.1174 5.84394C24.9174 5.84394 23.9414 4.86794 23.9414 3.66794C23.9414 2.46794 24.9174 1.49194 26.1174 1.49194C27.3174 1.49194 28.2934 2.46794 28.2934 3.66794C28.2934 4.86794 27.3174 5.84394 26.1174 5.84394ZM26.1174 2.45394C25.4474 2.45394 24.9014 2.99994 24.9014 3.66994C24.9014 4.33994 25.4474 4.88594 26.1174 4.88594C26.7874 4.88594 27.3334 4.33994 27.3334 3.66994C27.3334 2.99994 26.7874 2.45394 26.1174 2.45394Z" fill="#212121"/>
<path d="M26.1181 9.204C24.8881 9.204 23.7341 8.726 22.8641 7.856C21.9941 6.986 21.5161 5.832 21.5161 4.602C21.5161 3.372 21.9941 2.218 22.8641 1.348C23.7341 0.478 24.8881 0 26.1181 0C27.3481 0 28.5021 0.478 29.3721 1.348C30.2421 2.218 30.7201 3.372 30.7201 4.602C30.7201 5.832 30.2421 6.986 29.3721 7.856C28.5021 8.726 27.3481 9.204 26.1181 9.204ZM26.1181 0.96C24.1101 0.96 22.4761 2.594 22.4761 4.602C22.4761 6.61 24.1101 8.244 26.1181 8.244C28.1261 8.244 29.7601 6.61 29.7601 4.602C29.7601 2.594 28.1261 0.96 26.1181 0.96ZM1.5821 7.888C1.5281 7.888 1.4741 7.878 1.4201 7.86C1.1701 7.77 1.0401 7.496 1.1301 7.246C1.6341 5.832 2.9821 4.882 4.4821 4.882H4.7221C6.2241 4.882 7.5701 5.832 8.0741 7.246C8.1641 7.496 8.0321 7.77 7.7841 7.86C7.5341 7.95 7.2601 7.818 7.1701 7.57C6.8021 6.538 5.8181 5.844 4.7221 5.844H4.4821C3.3861 5.844 2.4021 6.538 2.0341 7.57C1.9641 7.766 1.7781 7.888 1.5821 7.888Z" fill="#212121"/>
<path d="M4.60178 5.84394C3.40178 5.84394 2.42578 4.86794 2.42578 3.66794C2.42578 2.46794 3.40178 1.49194 4.60178 1.49194C5.80178 1.49194 6.77578 2.46794 6.77578 3.66794C6.77578 4.86794 5.80178 5.84394 4.60178 5.84394ZM4.60178 2.45394C3.93178 2.45394 3.38578 2.99994 3.38578 3.66994C3.38578 4.33994 3.93178 4.88594 4.60178 4.88594C5.27178 4.88594 5.81578 4.33994 5.81578 3.66994C5.81578 2.99994 5.27178 2.45394 4.60178 2.45394Z" fill="#212121"/>
<path d="M4.602 9.204C3.372 9.204 2.218 8.726 1.348 7.856C0.478 6.988 0 5.832 0 4.602C0 3.372 0.478 2.218 1.348 1.348C2.218 0.478 3.372 0 4.602 0C5.832 0 6.986 0.478 7.856 1.348C8.726 2.218 9.204 3.372 9.204 4.602C9.204 5.832 8.726 6.986 7.856 7.856C6.986 8.726 5.832 9.204 4.602 9.204ZM4.602 0.96C2.594 0.96 0.96 2.594 0.96 4.602C0.96 6.61 2.594 8.244 4.602 8.244C6.61 8.244 8.244 6.61 8.244 4.602C8.244 2.594 6.61 0.96 4.602 0.96Z" fill="#212121"/>
</svg>
