<svg width="30" height="29" viewBox="0 0 30 29" fill="none" xmlns="http://www.w3.org/2000/svg">
<path d="M25.42 1.49L20.75 0.02C20.745 0.02 20.74 0.015 20.735 0.02C20.7112 0.0102337 20.6858 0.00514109 20.66 0.005C20.655 -4.65661e-09 20.645 0 20.64 0H9.36003C9.35003 0 9.34003 -4.65661e-09 9.33003 0.005C9.30003 0.005 9.27503 0.015 9.25003 0.02L4.58003 1.49C3.24969 1.90362 2.08701 2.73285 1.26268 3.85595C0.438356 4.97906 -0.00418643 6.33685 2.98502e-05 7.73V14.46C2.98502e-05 14.735 0.22503 14.96 0.50003 14.96H4.98503V27.96C4.98503 28.24 5.21003 28.46 5.48503 28.46H24.515C24.79 28.46 25.015 28.24 25.015 27.96V14.96H29.5C29.775 14.96 30 14.735 30 14.46V7.73C30 4.86 28.16 2.35 25.42 1.49ZM9.03003 1.14C9.38003 2.29 10.63 4.68 15 4.68C19.37 4.68 20.62 2.29 20.97 1.14L21.525 1.315H21.527C20.9945 3.246 19.404 5.3425 15 5.3425C10.596 5.3425 9.00553 3.246 8.47303 1.3155H8.47503L9.03003 1.14ZM29 13.96H25.015V7.865C25.015 7.585 24.79 7.365 24.515 7.365C24.24 7.365 24.015 7.585 24.015 7.865V27.46H5.98503V7.865C5.98503 7.585 5.76003 7.365 5.48503 7.365C5.21003 7.365 4.98503 7.585 4.98503 7.865V13.96H1.00003V7.73C1.00003 5.3 2.56003 3.175 4.88003 2.445L7.51503 1.615L7.52003 1.6135C8.07903 3.5885 9.79003 6.3425 15 6.3425C20.21 6.3425 21.9205 3.5885 22.48 1.6135L22.485 1.615L25.12 2.445C27.44 3.175 29 5.3 29 7.73V13.96Z" fill="black"/>
</svg>
